{"title":"Dorotheas Rache (Peter Fleischmann, 1974)","uid":6814496,"size":1563215807,"categoryP":"video","categoryS":"movies","magnet":"?xt=urn:btih:2620c3c733cffae3a450bc45825f219493380bb0&amp;dn=Dorotheas+Rache+%28Peter+Fleischmann%2C+1974%29&amp;tr=udp%3A%2F%2Ftracker.openbittorrent.com%3A80&amp;tr=udp%3A%2F%2Fopen.demonii.com%3A1337&amp;tr=udp%3A%2F%2Ftracker.coppersurfer.tk%3A6969&amp;tr=udp%3A%2F%2Fexodus.desync.com%3A6969","seeders":0,"leechers":1,"uploader":"tonioferah","files":3,"time":1321150103,"description":"An hilarious oddity by Peter Fleischmann (Hard to Be a God , Hunting Scenes from Bavaria), scripted by himself and Jean-Claude CarriÃƒÂ¨re (Max mon amour, The Discreet Charm of the Bourgeoisie and countless other classics).\n\nDorothea, a 16-year-old bourgeois girl from Hamburg, plays with her friends of both sexes, imitating the production of adult movies. In the end, pretending to make sex-scenes is not satisfying enough, and with a street professional, Dorothea is initiated in hard sex.\n\n_________________________________\n\nRip Specs\n\n\n\nGeneral\n\nComplete name                    : F:\\Dorotheas.Rache.1974.DVDRip.x264-ShitBusters\\Dorotheas.Rache.1974.DVDRip.x264-ShitBusters.mkv\nFormat                           : Matroska\nFile size                        : 1.46 GiB\nDuration                         : 1h 26mn\nOverall bit rate                 : 2 407 Kbps\n\n\nVideo\n\nID                               : 1\nFormat                           : AVC\nFormat/Info                      : Advanced Video Codec\nFormat profile                   : &lt;a class=&quot;__cf_email__&quot; href=&quot;/cdn-cgi/l/email-protection&quot; data-cfemail=&quot;662e0f010e262a524857&quot;&gt;[email&amp;#160;protected]&lt;/a&gt;&lt;script cf-hash='f9e31' type=&quot;text/javascript&quot;&gt;\n/* &lt;![CDATA[ */!function(){try{var t=&quot;currentScript&quot;in document?document.currentScript:function(){for(var t=document.getElementsByTagName(&quot;script&quot;),e=t.length;e--;)if(t[e].getAttribute(&quot;cf-hash&quot;))return t[e]}();if(t&amp;&amp;t.previousSibling){var e,r,n,i,c=t.previousSibling,a=c.getAttribute(&quot;data-cfemail&quot;);if(a){for(e=&quot;&quot;,r=parseInt(a.substr(0,2),16),n=2;a.length-n;n+=2)i=parseInt(a.substr(n,2),16)^r,e+=String.fromCharCode(i);e=document.createTextNode(e),c.parentNode.replaceChild(e,c)}}}catch(u){}}();/* ]]&gt; */&lt;/script&gt;\nFormat settings, CABAC           : Yes\nFormat settings, ReFrames        : 16 frames\nFormat settings, GOP             : N=1\nMuxing mode                      : Header stripping\nCodec ID                         : V_MPEG4/ISO/AVC\nDuration                         : 1h 26mn\nBit rate                         : 2 214 Kbps\nWidth                            : 684 pixels\nHeight                           : 564 pixels\nDisplay aspect ratio             : 4:3\nFrame rate                       : 25.000 fps\nColor space                      : YUV\nChroma subsampling               : 4:2:0\nBit depth                        : 8 bits\nScan type                        : Progressive\nBits/(Pixel*Frame)               : 0.230\nStream size                      : 1.31 GiB (90%)\nTitle                            : Dorotheas Rache / Dorothea's Revenge (1974)\nWriting library                  : x264 core 104 r1683 62997d6\n\n\nAudio\n\nID                               : 2\nFormat                           : AC-3\nFormat/Info                      : Audio Coding 3\nMode extension                   : CM (complete main)\nMuxing mode                      : Header stripping\nCodec ID                         : A_AC3\nDuration                         : 1h 26mn\nBit rate mode                    : Constant\nBit rate                         : 192 Kbps\nChannel(s)                       : 2 channels\nChannel positions                : Front: L R\nSampling rate                    : 48.0 KHz\nBit depth                        : 16 bits\nCompression mode                 : Lossy\nStream size                      : 119 MiB (8%)\nTitle                            : German Audio (AC3 @ 192 kbps, 2 channels)\nLanguage                         : German\n","torrent":{"xt":"urn:btih:2620c3c733cffae3a450bc45825f219493380bb0","amp;dn":"Dorotheas+Rache+%28Peter+Fleischmann%2C+1974%29","amp;tr":["udp%3A%2F%2Ftracker.openbittorrent.com%3A80","udp%3A%2F%2Fopen.demonii.com%3A1337","udp%3A%2F%2Ftracker.coppersurfer.tk%3A6969","udp%3A%2F%2Fexodus.desync.com%3A6969"],"infoHash":"2620c3c733cffae3a450bc45825f219493380bb0","infoHashBuffer":{"type":"Buffer","data":[38,32,195,199,51,207,250,227,164,80,188,69,130,95,33,148,147,56,11,176]},"announce":[],"urlList":[]}}